<mxfile host="Electron" modified="2024-12-03T02:50:12.715Z" agent="Mozilla/5.0 (Windows NT 10.0; Win64; x64) AppleWebKit/537.36 (KHTML, like Gecko) draw.io/23.1.5 Chrome/120.0.6099.109 Electron/28.1.0 Safari/537.36" etag="A8LWS86VSmz2dtGtSiJn" version="23.1.5" type="device">
  <diagram name="Page-1" id="HPtScflxN2KHNqUduM5f">
    <mxGraphModel dx="808" dy="541" grid="1" gridSize="10" guides="1" tooltips="1" connect="1" arrows="1" fold="1" page="1" pageScale="1" pageWidth="827" pageHeight="1169" math="0" shadow="0">
      <root>
        <mxCell id="0" />
        <mxCell id="1" parent="0" />
        <mxCell id="mTgjK9CZH6uMy2lsPAL4-1" value="Registration Form" style="swimlane;whiteSpace=wrap;html=1;fontSize=14;labelBackgroundColor=none;fillColor=#FAE5C7;strokeColor=#0F8B8D;fontColor=#143642;" vertex="1" parent="1">
          <mxGeometry x="30" y="20" width="520" height="360" as="geometry" />
        </mxCell>
        <mxCell id="mTgjK9CZH6uMy2lsPAL4-4" value="" style="edgeStyle=orthogonalEdgeStyle;rounded=0;orthogonalLoop=1;jettySize=auto;html=1;labelBackgroundColor=none;strokeColor=#A8201A;fontColor=default;" edge="1" parent="mTgjK9CZH6uMy2lsPAL4-1" source="mTgjK9CZH6uMy2lsPAL4-2" target="mTgjK9CZH6uMy2lsPAL4-3">
          <mxGeometry relative="1" as="geometry" />
        </mxCell>
        <mxCell id="mTgjK9CZH6uMy2lsPAL4-2" value="Accept details&lt;br style=&quot;font-size: 14px;&quot;&gt;from user" style="shape=parallelogram;perimeter=parallelogramPerimeter;whiteSpace=wrap;html=1;fixedSize=1;fontSize=14;labelBackgroundColor=none;fillColor=#FAE5C7;strokeColor=#0F8B8D;fontColor=#143642;" vertex="1" parent="mTgjK9CZH6uMy2lsPAL4-1">
          <mxGeometry x="41.5" y="30" width="174" height="50" as="geometry" />
        </mxCell>
        <mxCell id="mTgjK9CZH6uMy2lsPAL4-6" value="" style="edgeStyle=orthogonalEdgeStyle;rounded=0;orthogonalLoop=1;jettySize=auto;html=1;labelBackgroundColor=none;strokeColor=#A8201A;fontColor=default;" edge="1" parent="mTgjK9CZH6uMy2lsPAL4-1" source="mTgjK9CZH6uMy2lsPAL4-3" target="mTgjK9CZH6uMy2lsPAL4-5">
          <mxGeometry relative="1" as="geometry" />
        </mxCell>
        <mxCell id="mTgjK9CZH6uMy2lsPAL4-3" value="Validate all data" style="whiteSpace=wrap;html=1;fontSize=14;labelBackgroundColor=none;fillColor=#FAE5C7;strokeColor=#0F8B8D;fontColor=#143642;" vertex="1" parent="mTgjK9CZH6uMy2lsPAL4-1">
          <mxGeometry x="45" y="110" width="167" height="35" as="geometry" />
        </mxCell>
        <mxCell id="mTgjK9CZH6uMy2lsPAL4-8" value="" style="edgeStyle=orthogonalEdgeStyle;rounded=0;orthogonalLoop=1;jettySize=auto;html=1;labelBackgroundColor=none;strokeColor=#A8201A;fontColor=default;" edge="1" parent="mTgjK9CZH6uMy2lsPAL4-1" source="mTgjK9CZH6uMy2lsPAL4-5" target="mTgjK9CZH6uMy2lsPAL4-7">
          <mxGeometry relative="1" as="geometry" />
        </mxCell>
        <mxCell id="mTgjK9CZH6uMy2lsPAL4-11" value="" style="edgeStyle=orthogonalEdgeStyle;rounded=0;orthogonalLoop=1;jettySize=auto;html=1;labelBackgroundColor=none;strokeColor=#A8201A;fontColor=default;" edge="1" parent="mTgjK9CZH6uMy2lsPAL4-1" source="mTgjK9CZH6uMy2lsPAL4-5" target="mTgjK9CZH6uMy2lsPAL4-10">
          <mxGeometry relative="1" as="geometry" />
        </mxCell>
        <mxCell id="mTgjK9CZH6uMy2lsPAL4-5" value="is data vald" style="rhombus;whiteSpace=wrap;html=1;fontSize=14;labelBackgroundColor=none;fillColor=#FAE5C7;strokeColor=#0F8B8D;fontColor=#143642;" vertex="1" parent="mTgjK9CZH6uMy2lsPAL4-1">
          <mxGeometry x="20" y="190" width="217" height="67.5" as="geometry" />
        </mxCell>
        <mxCell id="mTgjK9CZH6uMy2lsPAL4-7" value="Show Error message" style="whiteSpace=wrap;html=1;fontSize=14;labelBackgroundColor=none;fillColor=#FAE5C7;strokeColor=#0F8B8D;fontColor=#143642;" vertex="1" parent="mTgjK9CZH6uMy2lsPAL4-1">
          <mxGeometry x="321.5" y="200.63" width="160" height="46.25" as="geometry" />
        </mxCell>
        <mxCell id="mTgjK9CZH6uMy2lsPAL4-9" value="Invalid data" style="text;html=1;align=center;verticalAlign=middle;whiteSpace=wrap;rounded=0;fontSize=14;labelBackgroundColor=none;fontColor=#143642;" vertex="1" parent="mTgjK9CZH6uMy2lsPAL4-1">
          <mxGeometry x="237" y="190" width="76" height="30" as="geometry" />
        </mxCell>
        <mxCell id="mTgjK9CZH6uMy2lsPAL4-10" value="Insert into database" style="whiteSpace=wrap;html=1;fontSize=14;labelBackgroundColor=none;fillColor=#FAE5C7;strokeColor=#0F8B8D;fontColor=#143642;" vertex="1" parent="mTgjK9CZH6uMy2lsPAL4-1">
          <mxGeometry x="55" y="300" width="147" height="38.75" as="geometry" />
        </mxCell>
        <mxCell id="mTgjK9CZH6uMy2lsPAL4-12" value="Valid data" style="text;html=1;align=center;verticalAlign=middle;whiteSpace=wrap;rounded=0;fontSize=14;labelBackgroundColor=none;fontColor=#143642;" vertex="1" parent="mTgjK9CZH6uMy2lsPAL4-1">
          <mxGeometry x="121" y="260" width="81" height="30" as="geometry" />
        </mxCell>
        <mxCell id="mTgjK9CZH6uMy2lsPAL4-13" value="Username Validation" style="swimlane;whiteSpace=wrap;html=1;fontSize=14;labelBackgroundColor=none;fillColor=#FAE5C7;strokeColor=#0F8B8D;fontColor=#143642;" vertex="1" parent="1">
          <mxGeometry x="30" y="390" width="698.5" height="310" as="geometry" />
        </mxCell>
        <mxCell id="mTgjK9CZH6uMy2lsPAL4-17" value="" style="edgeStyle=orthogonalEdgeStyle;rounded=0;orthogonalLoop=1;jettySize=auto;html=1;fontSize=14;labelBackgroundColor=none;strokeColor=#A8201A;fontColor=default;" edge="1" parent="mTgjK9CZH6uMy2lsPAL4-13" source="mTgjK9CZH6uMy2lsPAL4-15" target="mTgjK9CZH6uMy2lsPAL4-16">
          <mxGeometry relative="1" as="geometry" />
        </mxCell>
        <mxCell id="mTgjK9CZH6uMy2lsPAL4-15" value="Read data &lt;br style=&quot;font-size: 14px;&quot;&gt;from field" style="shape=parallelogram;perimeter=parallelogramPerimeter;whiteSpace=wrap;html=1;fixedSize=1;fontSize=14;labelBackgroundColor=none;fillColor=#FAE5C7;strokeColor=#0F8B8D;fontColor=#143642;" vertex="1" parent="mTgjK9CZH6uMy2lsPAL4-13">
          <mxGeometry x="20" y="40" width="180" height="40" as="geometry" />
        </mxCell>
        <mxCell id="mTgjK9CZH6uMy2lsPAL4-19" value="" style="edgeStyle=orthogonalEdgeStyle;rounded=0;orthogonalLoop=1;jettySize=auto;html=1;fontSize=14;labelBackgroundColor=none;strokeColor=#A8201A;fontColor=default;" edge="1" parent="mTgjK9CZH6uMy2lsPAL4-13" source="mTgjK9CZH6uMy2lsPAL4-16" target="mTgjK9CZH6uMy2lsPAL4-18">
          <mxGeometry relative="1" as="geometry" />
        </mxCell>
        <mxCell id="mTgjK9CZH6uMy2lsPAL4-23" value="" style="edgeStyle=orthogonalEdgeStyle;rounded=0;orthogonalLoop=1;jettySize=auto;html=1;fontSize=14;labelBackgroundColor=none;strokeColor=#A8201A;fontColor=default;" edge="1" parent="mTgjK9CZH6uMy2lsPAL4-13" source="mTgjK9CZH6uMy2lsPAL4-16" target="mTgjK9CZH6uMy2lsPAL4-22">
          <mxGeometry relative="1" as="geometry" />
        </mxCell>
        <mxCell id="mTgjK9CZH6uMy2lsPAL4-16" value="length&amp;nbsp; &amp;gt; 4 character" style="rhombus;whiteSpace=wrap;html=1;fontSize=14;labelBackgroundColor=none;fillColor=#FAE5C7;strokeColor=#0F8B8D;fontColor=#143642;" vertex="1" parent="mTgjK9CZH6uMy2lsPAL4-13">
          <mxGeometry x="20" y="110" width="180" height="80" as="geometry" />
        </mxCell>
        <mxCell id="mTgjK9CZH6uMy2lsPAL4-21" value="" style="edgeStyle=orthogonalEdgeStyle;rounded=0;orthogonalLoop=1;jettySize=auto;html=1;fontSize=14;labelBackgroundColor=none;strokeColor=#A8201A;fontColor=default;" edge="1" parent="mTgjK9CZH6uMy2lsPAL4-13" source="mTgjK9CZH6uMy2lsPAL4-18" target="mTgjK9CZH6uMy2lsPAL4-20">
          <mxGeometry relative="1" as="geometry" />
        </mxCell>
        <mxCell id="mTgjK9CZH6uMy2lsPAL4-27" style="edgeStyle=orthogonalEdgeStyle;rounded=0;orthogonalLoop=1;jettySize=auto;html=1;entryX=1;entryY=0.5;entryDx=0;entryDy=0;labelBackgroundColor=none;strokeColor=#A8201A;fontColor=default;" edge="1" parent="mTgjK9CZH6uMy2lsPAL4-13" source="mTgjK9CZH6uMy2lsPAL4-18" target="mTgjK9CZH6uMy2lsPAL4-22">
          <mxGeometry relative="1" as="geometry">
            <Array as="points">
              <mxPoint x="295" y="260" />
            </Array>
          </mxGeometry>
        </mxCell>
        <mxCell id="mTgjK9CZH6uMy2lsPAL4-18" value="no spaces" style="rhombus;whiteSpace=wrap;html=1;fontSize=14;labelBackgroundColor=none;fillColor=#FAE5C7;strokeColor=#0F8B8D;fontColor=#143642;" vertex="1" parent="mTgjK9CZH6uMy2lsPAL4-13">
          <mxGeometry x="240" y="110" width="110" height="80" as="geometry" />
        </mxCell>
        <mxCell id="mTgjK9CZH6uMy2lsPAL4-28" style="edgeStyle=orthogonalEdgeStyle;rounded=0;orthogonalLoop=1;jettySize=auto;html=1;entryX=1;entryY=0.5;entryDx=0;entryDy=0;labelBackgroundColor=none;strokeColor=#A8201A;fontColor=default;" edge="1" parent="mTgjK9CZH6uMy2lsPAL4-13" source="mTgjK9CZH6uMy2lsPAL4-20" target="mTgjK9CZH6uMy2lsPAL4-22">
          <mxGeometry relative="1" as="geometry">
            <Array as="points">
              <mxPoint x="448" y="260" />
            </Array>
          </mxGeometry>
        </mxCell>
        <mxCell id="mTgjK9CZH6uMy2lsPAL4-30" value="" style="edgeStyle=orthogonalEdgeStyle;rounded=0;orthogonalLoop=1;jettySize=auto;html=1;labelBackgroundColor=none;strokeColor=#A8201A;fontColor=default;" edge="1" parent="mTgjK9CZH6uMy2lsPAL4-13" source="mTgjK9CZH6uMy2lsPAL4-20" target="mTgjK9CZH6uMy2lsPAL4-29">
          <mxGeometry relative="1" as="geometry" />
        </mxCell>
        <mxCell id="mTgjK9CZH6uMy2lsPAL4-20" value="no quotes" style="rhombus;whiteSpace=wrap;html=1;fontSize=14;labelBackgroundColor=none;fillColor=#FAE5C7;strokeColor=#0F8B8D;fontColor=#143642;" vertex="1" parent="mTgjK9CZH6uMy2lsPAL4-13">
          <mxGeometry x="393.5" y="110" width="110" height="80" as="geometry" />
        </mxCell>
        <mxCell id="mTgjK9CZH6uMy2lsPAL4-22" value="Display Error message" style="whiteSpace=wrap;html=1;fontSize=14;labelBackgroundColor=none;fillColor=#FAE5C7;strokeColor=#0F8B8D;fontColor=#143642;" vertex="1" parent="mTgjK9CZH6uMy2lsPAL4-13">
          <mxGeometry x="45" y="240" width="130" height="40" as="geometry" />
        </mxCell>
        <mxCell id="mTgjK9CZH6uMy2lsPAL4-24" value="true" style="text;html=1;align=center;verticalAlign=middle;whiteSpace=wrap;rounded=0;fontSize=14;labelBackgroundColor=none;fontColor=#143642;" vertex="1" parent="mTgjK9CZH6uMy2lsPAL4-13">
          <mxGeometry x="190" y="120" width="60" height="30" as="geometry" />
        </mxCell>
        <mxCell id="mTgjK9CZH6uMy2lsPAL4-25" value="true" style="text;html=1;align=center;verticalAlign=middle;whiteSpace=wrap;rounded=0;fontSize=14;labelBackgroundColor=none;fontColor=#143642;" vertex="1" parent="mTgjK9CZH6uMy2lsPAL4-13">
          <mxGeometry x="340" y="120" width="60" height="30" as="geometry" />
        </mxCell>
        <mxCell id="mTgjK9CZH6uMy2lsPAL4-26" value="false" style="text;html=1;align=center;verticalAlign=middle;whiteSpace=wrap;rounded=0;fontSize=14;labelBackgroundColor=none;fontColor=#143642;" vertex="1" parent="mTgjK9CZH6uMy2lsPAL4-13">
          <mxGeometry x="110" y="200" width="60" height="30" as="geometry" />
        </mxCell>
        <mxCell id="mTgjK9CZH6uMy2lsPAL4-29" value="accept username" style="whiteSpace=wrap;html=1;fontSize=14;labelBackgroundColor=none;fillColor=#FAE5C7;strokeColor=#0F8B8D;fontColor=#143642;" vertex="1" parent="mTgjK9CZH6uMy2lsPAL4-13">
          <mxGeometry x="550" y="130" width="120" height="40" as="geometry" />
        </mxCell>
        <mxCell id="mTgjK9CZH6uMy2lsPAL4-31" value="true" style="text;html=1;align=center;verticalAlign=middle;whiteSpace=wrap;rounded=0;fontSize=14;labelBackgroundColor=none;fontColor=#143642;" vertex="1" parent="mTgjK9CZH6uMy2lsPAL4-13">
          <mxGeometry x="490" y="120" width="60" height="30" as="geometry" />
        </mxCell>
        <mxCell id="mTgjK9CZH6uMy2lsPAL4-32" value="false" style="text;html=1;align=center;verticalAlign=middle;whiteSpace=wrap;rounded=0;fontSize=14;labelBackgroundColor=none;fontColor=#143642;" vertex="1" parent="mTgjK9CZH6uMy2lsPAL4-13">
          <mxGeometry x="290" y="190" width="60" height="30" as="geometry" />
        </mxCell>
        <mxCell id="mTgjK9CZH6uMy2lsPAL4-34" value="false" style="text;html=1;align=center;verticalAlign=middle;whiteSpace=wrap;rounded=0;fontSize=14;labelBackgroundColor=none;fontColor=#143642;" vertex="1" parent="mTgjK9CZH6uMy2lsPAL4-13">
          <mxGeometry x="443.5" y="190" width="60" height="30" as="geometry" />
        </mxCell>
        <mxCell id="mTgjK9CZH6uMy2lsPAL4-35" value="Password Validation" style="swimlane;whiteSpace=wrap;html=1;fontSize=14;labelBackgroundColor=none;fillColor=#FAE5C7;strokeColor=#0F8B8D;fontColor=#143642;" vertex="1" parent="1">
          <mxGeometry x="30" y="720" width="790" height="340" as="geometry" />
        </mxCell>
        <mxCell id="mTgjK9CZH6uMy2lsPAL4-36" value="" style="edgeStyle=orthogonalEdgeStyle;rounded=0;orthogonalLoop=1;jettySize=auto;html=1;fontSize=14;labelBackgroundColor=none;strokeColor=#A8201A;fontColor=default;" edge="1" parent="mTgjK9CZH6uMy2lsPAL4-35" source="mTgjK9CZH6uMy2lsPAL4-37" target="mTgjK9CZH6uMy2lsPAL4-40">
          <mxGeometry relative="1" as="geometry" />
        </mxCell>
        <mxCell id="mTgjK9CZH6uMy2lsPAL4-37" value="Read data &lt;br style=&quot;font-size: 14px;&quot;&gt;from field" style="shape=parallelogram;perimeter=parallelogramPerimeter;whiteSpace=wrap;html=1;fixedSize=1;fontSize=14;labelBackgroundColor=none;fillColor=#FAE5C7;strokeColor=#0F8B8D;fontColor=#143642;" vertex="1" parent="mTgjK9CZH6uMy2lsPAL4-35">
          <mxGeometry x="20" y="40" width="180" height="40" as="geometry" />
        </mxCell>
        <mxCell id="mTgjK9CZH6uMy2lsPAL4-38" value="" style="edgeStyle=orthogonalEdgeStyle;rounded=0;orthogonalLoop=1;jettySize=auto;html=1;fontSize=14;labelBackgroundColor=none;strokeColor=#A8201A;fontColor=default;" edge="1" parent="mTgjK9CZH6uMy2lsPAL4-35" source="mTgjK9CZH6uMy2lsPAL4-40" target="mTgjK9CZH6uMy2lsPAL4-43">
          <mxGeometry relative="1" as="geometry" />
        </mxCell>
        <mxCell id="mTgjK9CZH6uMy2lsPAL4-39" value="" style="edgeStyle=orthogonalEdgeStyle;rounded=0;orthogonalLoop=1;jettySize=auto;html=1;fontSize=14;labelBackgroundColor=none;strokeColor=#A8201A;fontColor=default;" edge="1" parent="mTgjK9CZH6uMy2lsPAL4-35" source="mTgjK9CZH6uMy2lsPAL4-40" target="mTgjK9CZH6uMy2lsPAL4-47">
          <mxGeometry relative="1" as="geometry" />
        </mxCell>
        <mxCell id="mTgjK9CZH6uMy2lsPAL4-40" value="length&amp;nbsp; &amp;gt; 8 character" style="rhombus;whiteSpace=wrap;html=1;fontSize=14;labelBackgroundColor=none;fillColor=#FAE5C7;strokeColor=#0F8B8D;fontColor=#143642;" vertex="1" parent="mTgjK9CZH6uMy2lsPAL4-35">
          <mxGeometry x="20" y="110" width="180" height="80" as="geometry" />
        </mxCell>
        <mxCell id="mTgjK9CZH6uMy2lsPAL4-41" value="" style="edgeStyle=orthogonalEdgeStyle;rounded=0;orthogonalLoop=1;jettySize=auto;html=1;fontSize=14;labelBackgroundColor=none;strokeColor=#A8201A;fontColor=default;" edge="1" parent="mTgjK9CZH6uMy2lsPAL4-35" source="mTgjK9CZH6uMy2lsPAL4-43" target="mTgjK9CZH6uMy2lsPAL4-46">
          <mxGeometry relative="1" as="geometry" />
        </mxCell>
        <mxCell id="mTgjK9CZH6uMy2lsPAL4-42" style="edgeStyle=orthogonalEdgeStyle;rounded=0;orthogonalLoop=1;jettySize=auto;html=1;entryX=1;entryY=0.5;entryDx=0;entryDy=0;labelBackgroundColor=none;strokeColor=#A8201A;fontColor=default;" edge="1" parent="mTgjK9CZH6uMy2lsPAL4-35" source="mTgjK9CZH6uMy2lsPAL4-43" target="mTgjK9CZH6uMy2lsPAL4-47">
          <mxGeometry relative="1" as="geometry">
            <Array as="points">
              <mxPoint x="295" y="260" />
            </Array>
          </mxGeometry>
        </mxCell>
        <mxCell id="mTgjK9CZH6uMy2lsPAL4-43" value="no spaces" style="rhombus;whiteSpace=wrap;html=1;fontSize=14;labelBackgroundColor=none;fillColor=#FAE5C7;strokeColor=#0F8B8D;fontColor=#143642;" vertex="1" parent="mTgjK9CZH6uMy2lsPAL4-35">
          <mxGeometry x="240" y="110" width="110" height="80" as="geometry" />
        </mxCell>
        <mxCell id="mTgjK9CZH6uMy2lsPAL4-44" style="edgeStyle=orthogonalEdgeStyle;rounded=0;orthogonalLoop=1;jettySize=auto;html=1;entryX=1;entryY=0.5;entryDx=0;entryDy=0;labelBackgroundColor=none;strokeColor=#A8201A;fontColor=default;" edge="1" parent="mTgjK9CZH6uMy2lsPAL4-35" source="mTgjK9CZH6uMy2lsPAL4-46" target="mTgjK9CZH6uMy2lsPAL4-47">
          <mxGeometry relative="1" as="geometry">
            <Array as="points">
              <mxPoint x="448" y="260" />
            </Array>
          </mxGeometry>
        </mxCell>
        <mxCell id="mTgjK9CZH6uMy2lsPAL4-57" style="edgeStyle=orthogonalEdgeStyle;rounded=0;orthogonalLoop=1;jettySize=auto;html=1;entryX=0;entryY=0.5;entryDx=0;entryDy=0;labelBackgroundColor=none;strokeColor=#A8201A;fontColor=default;" edge="1" parent="mTgjK9CZH6uMy2lsPAL4-35" source="mTgjK9CZH6uMy2lsPAL4-46" target="mTgjK9CZH6uMy2lsPAL4-56">
          <mxGeometry relative="1" as="geometry" />
        </mxCell>
        <mxCell id="mTgjK9CZH6uMy2lsPAL4-46" value="no quotes" style="rhombus;whiteSpace=wrap;html=1;fontSize=14;labelBackgroundColor=none;fillColor=#FAE5C7;strokeColor=#0F8B8D;fontColor=#143642;" vertex="1" parent="mTgjK9CZH6uMy2lsPAL4-35">
          <mxGeometry x="393.5" y="110" width="110" height="80" as="geometry" />
        </mxCell>
        <mxCell id="mTgjK9CZH6uMy2lsPAL4-47" value="Display Error message" style="whiteSpace=wrap;html=1;fontSize=14;labelBackgroundColor=none;fillColor=#FAE5C7;strokeColor=#0F8B8D;fontColor=#143642;" vertex="1" parent="mTgjK9CZH6uMy2lsPAL4-35">
          <mxGeometry x="45" y="240" width="130" height="40" as="geometry" />
        </mxCell>
        <mxCell id="mTgjK9CZH6uMy2lsPAL4-48" value="true" style="text;html=1;align=center;verticalAlign=middle;whiteSpace=wrap;rounded=0;fontSize=14;labelBackgroundColor=none;fontColor=#143642;" vertex="1" parent="mTgjK9CZH6uMy2lsPAL4-35">
          <mxGeometry x="190" y="120" width="60" height="30" as="geometry" />
        </mxCell>
        <mxCell id="mTgjK9CZH6uMy2lsPAL4-49" value="true" style="text;html=1;align=center;verticalAlign=middle;whiteSpace=wrap;rounded=0;fontSize=14;labelBackgroundColor=none;fontColor=#143642;" vertex="1" parent="mTgjK9CZH6uMy2lsPAL4-35">
          <mxGeometry x="340" y="120" width="60" height="30" as="geometry" />
        </mxCell>
        <mxCell id="mTgjK9CZH6uMy2lsPAL4-50" value="false" style="text;html=1;align=center;verticalAlign=middle;whiteSpace=wrap;rounded=0;fontSize=14;labelBackgroundColor=none;fontColor=#143642;" vertex="1" parent="mTgjK9CZH6uMy2lsPAL4-35">
          <mxGeometry x="110" y="200" width="60" height="30" as="geometry" />
        </mxCell>
        <mxCell id="mTgjK9CZH6uMy2lsPAL4-52" value="true" style="text;html=1;align=center;verticalAlign=middle;whiteSpace=wrap;rounded=0;fontSize=14;labelBackgroundColor=none;fontColor=#143642;" vertex="1" parent="mTgjK9CZH6uMy2lsPAL4-35">
          <mxGeometry x="490" y="120" width="60" height="30" as="geometry" />
        </mxCell>
        <mxCell id="mTgjK9CZH6uMy2lsPAL4-53" value="false" style="text;html=1;align=center;verticalAlign=middle;whiteSpace=wrap;rounded=0;fontSize=14;labelBackgroundColor=none;fontColor=#143642;" vertex="1" parent="mTgjK9CZH6uMy2lsPAL4-35">
          <mxGeometry x="290" y="190" width="60" height="30" as="geometry" />
        </mxCell>
        <mxCell id="mTgjK9CZH6uMy2lsPAL4-54" value="false" style="text;html=1;align=center;verticalAlign=middle;whiteSpace=wrap;rounded=0;fontSize=14;labelBackgroundColor=none;fontColor=#143642;" vertex="1" parent="mTgjK9CZH6uMy2lsPAL4-35">
          <mxGeometry x="443.5" y="190" width="60" height="30" as="geometry" />
        </mxCell>
        <mxCell id="mTgjK9CZH6uMy2lsPAL4-58" style="edgeStyle=orthogonalEdgeStyle;rounded=0;orthogonalLoop=1;jettySize=auto;html=1;entryX=1;entryY=0.5;entryDx=0;entryDy=0;labelBackgroundColor=none;strokeColor=#A8201A;fontColor=default;" edge="1" parent="mTgjK9CZH6uMy2lsPAL4-35" source="mTgjK9CZH6uMy2lsPAL4-56" target="mTgjK9CZH6uMy2lsPAL4-47">
          <mxGeometry relative="1" as="geometry">
            <Array as="points">
              <mxPoint x="635" y="260" />
            </Array>
          </mxGeometry>
        </mxCell>
        <mxCell id="mTgjK9CZH6uMy2lsPAL4-60" style="edgeStyle=orthogonalEdgeStyle;rounded=0;orthogonalLoop=1;jettySize=auto;html=1;entryX=1;entryY=0.5;entryDx=0;entryDy=0;labelBackgroundColor=none;strokeColor=#A8201A;fontColor=default;" edge="1" parent="mTgjK9CZH6uMy2lsPAL4-35" source="mTgjK9CZH6uMy2lsPAL4-56" target="mTgjK9CZH6uMy2lsPAL4-59">
          <mxGeometry relative="1" as="geometry">
            <Array as="points">
              <mxPoint x="750" y="150" />
              <mxPoint x="750" y="300" />
            </Array>
          </mxGeometry>
        </mxCell>
        <mxCell id="mTgjK9CZH6uMy2lsPAL4-56" value="at least 1 &lt;br&gt;[uppercase, &lt;br&gt;special symbol, &lt;br&gt;number]" style="rhombus;whiteSpace=wrap;html=1;fontSize=14;labelBackgroundColor=none;fillColor=#FAE5C7;strokeColor=#0F8B8D;fontColor=#143642;" vertex="1" parent="mTgjK9CZH6uMy2lsPAL4-35">
          <mxGeometry x="540" y="85" width="190" height="130" as="geometry" />
        </mxCell>
        <mxCell id="mTgjK9CZH6uMy2lsPAL4-59" value="accept password" style="whiteSpace=wrap;html=1;fontSize=14;labelBackgroundColor=none;fillColor=#FAE5C7;strokeColor=#0F8B8D;fontColor=#143642;" vertex="1" parent="mTgjK9CZH6uMy2lsPAL4-35">
          <mxGeometry x="540" y="280" width="120" height="40" as="geometry" />
        </mxCell>
        <mxCell id="mTgjK9CZH6uMy2lsPAL4-61" value="false" style="text;html=1;align=center;verticalAlign=middle;whiteSpace=wrap;rounded=0;fontSize=14;labelBackgroundColor=none;fontColor=#143642;" vertex="1" parent="mTgjK9CZH6uMy2lsPAL4-35">
          <mxGeometry x="630" y="215" width="60" height="30" as="geometry" />
        </mxCell>
        <mxCell id="mTgjK9CZH6uMy2lsPAL4-62" value="true" style="text;html=1;align=center;verticalAlign=middle;whiteSpace=wrap;rounded=0;fontSize=14;labelBackgroundColor=none;fontColor=#143642;" vertex="1" parent="mTgjK9CZH6uMy2lsPAL4-35">
          <mxGeometry x="720" y="120" width="60" height="30" as="geometry" />
        </mxCell>
      </root>
    </mxGraphModel>
  </diagram>
</mxfile>
